<svg width="2498" height="955" viewBox="0 0 2498 955" fill="none" xmlns="http://www.w3.org/2000/svg">
<path fill-rule="evenodd" clip-rule="evenodd" d="M330.928 477.039H184.148L242.603 273.166C255.496 228.323 258.912 197.735 258.912 197.735H260.941C260.941 197.735 263.663 229.685 275.221 273.166L330.928 477.039ZM407.72 695.86C402.358 695.952 397.116 694.266 392.814 691.065C388.511 687.863 385.39 683.327 383.938 678.164V677.496L350.652 561.974H162.395L127.748 677.496C126.234 682.676 123.116 687.242 118.842 690.537C114.569 693.832 109.36 695.687 103.965 695.834H25.1695C18.5275 695.741 12.1831 693.063 7.48364 688.369C2.78414 683.674 0.0995935 677.332 0 670.69C0 667.994 0.667762 665.939 1.36121 663.242V662.549L188.9 87.6567C191.622 76.7927 201.818 69.3189 213.376 69.3189H320.731C331.621 69.3189 341.124 76.767 344.514 86.2955L531.385 661.855C532.078 664.578 532.746 667.3 532.746 670.023C532.746 683.635 521.882 695.166 508.296 695.166H407.72V695.86ZM547.026 68.6254C547.026 58.4292 553.138 50.2877 561.306 46.204L640.795 4.75139C644.904 2.05465 651.685 0 657.104 0C670.716 0 682.273 10.864 682.273 25.1438V549.081C682.941 580.311 710.114 604.787 741.37 604.787C754.982 604.787 766.514 615.651 766.514 629.931V670.69C766.514 684.302 755.65 695.86 741.37 695.86H713.504C691.544 695.877 669.796 691.563 649.504 683.167C629.213 674.77 610.776 662.454 595.249 646.925C579.722 631.396 567.41 612.957 559.016 592.664C550.622 572.371 546.312 550.623 546.332 528.662V68.6511L547.026 68.6254ZM1166.76 236.465C1171.2 238.487 1174.97 241.739 1177.62 245.835C1180.27 249.932 1181.69 254.701 1181.71 259.58V690.415C1181.71 826.998 1096.77 892.901 971.723 897.678C911.265 900.375 860.284 886.121 818.137 867.757C813.45 865.816 809.454 862.51 806.67 858.269C803.885 854.028 802.44 849.048 802.522 843.975C802.522 840.585 803.216 837.862 803.883 835.14L817.495 800.467C820.886 790.297 830.388 782.823 841.946 782.823C845.336 782.823 848.726 783.491 851.449 784.878C878.647 795.048 911.932 802.522 946.579 802.522C1019.98 802.522 1046.49 767.85 1046.49 712.836V686.331C1030.18 695.166 1002.98 701.279 962.888 701.279C848.058 701.279 765.153 612.929 765.153 469.565C765.153 309.2 847.391 208.624 1011.81 208.624C1075.02 208.624 1130.06 220.182 1166.76 236.465ZM1045.79 610.232C1034.24 617.68 1015.9 621.79 997.56 621.79C928.241 621.79 899.707 570.141 899.707 461.398C899.707 346.569 928.935 288.807 1000.28 288.807C1019.29 288.807 1034.93 291.53 1045.79 296.949V610.232ZM1510.61 627.209V444.422C1431.76 438.309 1366.52 467.536 1366.52 542.942C1366.52 598.675 1399.84 631.96 1457.6 631.96C1494.97 631.96 1510.61 627.209 1510.61 627.209ZM1646.52 464.788V650.991C1646.52 661.188 1640.38 669.997 1630.88 674.106H1630.21C1588.09 690.415 1524.86 701.947 1450.12 701.947C1305.37 701.947 1228.61 649.63 1228.61 550.416C1228.61 427.419 1329.85 371.019 1509.91 379.88C1505.86 332.289 1477.99 303.087 1410.7 303.087C1376.05 303.087 1342.77 310.535 1315.57 320.731C1312.6 322.126 1309.35 322.829 1306.07 322.786C1294.51 322.786 1285.01 315.312 1281.59 305.116L1268 270.444C1266.64 267.747 1266.64 265.025 1266.64 261.609C1266.64 250.745 1273.45 241.91 1282.28 237.826C1323.74 219.488 1374.69 205.209 1435.87 207.931C1560.89 212.682 1645.83 278.611 1645.83 415.194V464.788H1646.52ZM1713.79 269.776C1713.79 250.077 1727.4 234.436 1745.04 228.323C1791.27 212.682 1851.73 204.541 1942.8 207.263H1943.47C1957.06 207.263 1968.62 218.127 1968.62 232.407V266.386C1968.62 279.972 1957.06 291.53 1943.45 291.53H1940.75C1907.46 288.807 1866.68 295.588 1849.01 303.755V671.358C1848.76 677.885 1846.02 684.066 1841.33 688.619C1836.65 693.172 1830.4 695.747 1823.86 695.808H1738.93C1735.62 695.819 1732.35 695.175 1729.29 693.916C1726.24 692.656 1723.46 690.805 1721.12 688.468C1718.78 686.132 1716.93 683.356 1715.66 680.301C1714.4 677.245 1713.75 673.971 1713.76 670.665V669.303L1713.79 269.776Z" fill="#0068A6"/>
<path d="M2069.19 233.075C2069.19 224.933 2073.94 216.766 2081.42 212.015C2085.38 209.779 2089.87 208.66 2094.41 208.778C2098.96 208.896 2103.39 210.245 2107.23 212.682L2252.65 296.281C2260.12 301.032 2264.9 308.506 2264.9 317.341C2264.9 326.844 2259.45 335.011 2251.28 339.763C2251.28 339.763 2106.56 423.361 2105.87 424.029C2102.1 426.035 2097.9 427.084 2093.64 427.084C2089.38 427.084 2085.18 426.035 2081.42 424.029C2077.49 421.802 2074.27 418.522 2072.11 414.561C2069.95 410.599 2068.94 406.113 2069.19 401.608V332.982V233.075Z" fill="#00AEEF"/>
<path d="M2302.24 366.936C2302.24 358.794 2307.02 350.627 2314.49 345.876C2318.45 343.644 2322.95 342.53 2327.49 342.652C2332.04 342.774 2336.47 344.128 2340.3 346.569L2485.75 430.142C2489.48 432.242 2492.58 435.302 2494.73 439.005C2496.88 442.709 2498 446.92 2497.97 451.202C2497.97 460.705 2492.53 468.872 2484.36 473.624C2484.36 473.624 2339.63 557.222 2338.97 557.222C2335.19 559.287 2330.94 560.31 2326.63 560.188C2322.33 560.067 2318.14 558.804 2314.49 556.529C2310.57 554.301 2307.34 551.022 2305.18 547.06C2303.02 543.099 2302.01 538.613 2302.27 534.107L2302.24 366.936Z" fill="#FFCB05"/>
<path d="M2069.19 501.49C2069.19 493.348 2073.94 485.181 2081.42 480.43C2085.38 478.194 2089.87 477.075 2094.41 477.193C2098.96 477.311 2103.39 478.66 2107.23 481.097L2252.65 564.696C2256.38 566.792 2259.49 569.851 2261.64 573.555C2263.8 577.259 2264.92 581.472 2264.9 585.756C2264.9 595.259 2259.45 604.094 2251.28 608.178C2251.28 608.178 2106.56 691.776 2105.87 691.776C2102.09 693.836 2097.84 694.857 2093.55 694.735C2089.25 694.613 2085.06 693.353 2081.42 691.083C2077.49 688.856 2074.27 685.576 2072.11 681.614C2069.95 677.653 2068.94 673.167 2069.19 668.662V600.036V501.49Z" fill="#00A651"/>
<path d="M2008.65 942.776C1997.53 942.776 1987.81 940.238 1979.48 935.168C1971.15 930.099 1964.69 923.068 1960.09 914.091C1955.5 905.115 1953.2 894.729 1953.2 882.933C1953.2 871.137 1955.42 861.303 1959.85 852.459C1964.29 843.614 1970.62 836.674 1978.87 831.621C1987.11 826.576 1996.98 824.054 2008.48 824.054C2019.98 824.054 2030.86 827.095 2039.67 833.179C2048.48 839.262 2054.31 848.354 2057.16 860.471L2039.11 864.691C2036.96 855.715 2033.18 849.071 2027.75 844.768C2022.32 840.465 2015.85 838.314 2008.32 838.314C2000.79 838.314 1993.99 840.243 1988.54 844.092C1983.09 847.942 1978.92 853.242 1976.05 859.985C1973.17 866.727 1971.74 874.517 1971.74 883.329C1971.74 892.14 1973.22 900.194 1976.17 906.994C1979.13 913.794 1983.29 919.078 1988.66 922.853C1994.03 926.629 2000.4 928.508 2007.76 928.508C2015.72 928.508 2022.55 926.159 2028.27 921.46C2033.99 916.762 2037.69 910.184 2039.35 901.743L2057.97 906.285C2054.8 918.13 2048.8 927.173 2039.96 933.413C2031.12 939.652 2020.69 942.776 2008.66 942.776H2008.65Z" fill="black"/>
<path d="M2107.01 942.775C2098.68 942.775 2091.34 940.879 2085.01 937.079C2078.67 933.279 2073.71 927.996 2070.14 921.22C2066.57 914.444 2064.78 906.63 2064.78 897.752C2064.78 888.875 2066.57 881.06 2070.14 874.285C2073.72 867.509 2078.67 862.225 2085.01 858.425C2091.34 854.625 2098.68 852.729 2107.01 852.729C2115.34 852.729 2122.68 854.642 2129.05 858.467C2135.42 862.291 2140.37 867.575 2143.92 874.326C2147.46 881.077 2149.24 888.883 2149.24 897.752C2149.24 906.622 2147.45 914.444 2143.87 921.22C2140.3 927.996 2135.35 933.279 2129.01 937.079C2122.67 940.879 2115.34 942.775 2107.01 942.775ZM2107.01 929.867C2114.64 929.867 2120.66 926.982 2125.06 921.22C2129.46 915.458 2131.67 907.636 2131.67 897.752C2131.67 887.869 2129.47 879.981 2125.06 874.244C2120.65 868.506 2114.64 865.638 2107.01 865.638C2099.38 865.638 2093.36 868.506 2088.96 874.244C2084.55 879.981 2082.35 887.82 2082.35 897.752C2082.35 907.685 2084.55 915.458 2088.96 921.22C2093.36 926.982 2099.38 929.867 2107.01 929.867Z" fill="black"/>
<path d="M2206.47 942.777C2200.56 942.777 2194.89 941.343 2189.46 938.475C2184.03 935.606 2179.84 930.85 2176.89 924.214L2177.77 923.654V940.783H2162.3V821.269H2178.66V872.507L2177.36 871.229C2179.89 864.964 2183.83 860.315 2189.21 857.282C2194.58 854.257 2200.36 852.74 2206.54 852.74C2213.68 852.74 2219.94 854.57 2225.31 858.238C2230.68 861.906 2234.86 867.107 2237.84 873.858C2240.83 880.609 2242.31 888.597 2242.31 897.845C2242.31 907.094 2240.81 915.147 2237.8 921.865C2234.79 928.583 2230.6 933.751 2225.23 937.362C2219.85 940.972 2213.6 942.777 2206.45 942.777H2206.47ZM2201.39 929.712C2208.27 929.712 2213.86 926.926 2218.16 921.346C2222.46 915.765 2224.6 907.827 2224.6 897.524C2224.6 887.22 2222.52 879.678 2218.36 874.097C2214.2 868.517 2208.6 865.731 2201.56 865.731C2197.32 865.731 2193.41 866.86 2189.84 869.119C2186.26 871.377 2183.42 874.839 2181.29 879.513C2179.17 884.187 2178.11 890.188 2178.11 897.524C2178.11 908.413 2180.37 916.499 2184.92 921.783C2189.45 927.066 2194.95 929.712 2201.4 929.712H2201.39Z" fill="black"/>
<path d="M2287.11 942.776C2279.64 942.776 2273.2 941.581 2267.77 939.19C2262.34 936.8 2257.97 933.28 2254.63 928.631C2251.3 923.982 2248.99 918.311 2247.7 911.618L2265.68 906.919C2266.65 914.09 2268.73 919.506 2271.92 923.174C2275.12 926.842 2280.19 928.672 2287.11 928.672C2293.45 928.672 2298.19 926.999 2301.34 923.652C2304.48 920.306 2306.05 914.89 2306.05 907.397V840.308H2262.77V826.048H2323.37V907.397C2323.37 913.505 2322.5 918.789 2320.75 923.257C2319.01 927.716 2316.54 931.384 2313.34 934.253C2310.15 937.121 2306.33 939.256 2301.9 940.666C2297.46 942.075 2292.53 942.776 2287.11 942.776H2287.11Z" fill="black"/>
<path d="M2369.43 942.778C2363.2 942.778 2357.87 941.368 2353.44 938.558C2349 935.739 2345.62 931.774 2343.28 926.647C2340.95 921.519 2339.78 915.453 2339.78 908.438V854.735H2356.14V906.921C2356.14 913.936 2357.45 919.5 2360.09 923.613C2362.72 927.726 2367.26 929.787 2373.71 929.787C2378.33 929.787 2382.4 928.608 2385.92 926.243C2389.43 923.877 2392.2 920.25 2394.22 915.37C2396.24 910.482 2397.24 904.292 2397.24 896.807V854.735H2413.6V940.791H2398.04V920.555L2398.61 924.058C2396.24 929.532 2392.58 934.016 2387.61 937.527C2382.64 941.03 2376.58 942.786 2369.43 942.786V942.778Z" fill="black"/>
<path d="M2462.85 942.778C2456.46 942.778 2450.6 941.772 2445.28 939.753C2439.97 937.733 2435.55 934.667 2432.03 930.554C2428.51 926.44 2426.18 921.165 2425.06 914.735L2441.34 911.628C2441.87 917.843 2444.04 922.492 2447.83 925.575C2451.61 928.658 2456.46 930.199 2462.38 930.199C2468.29 930.199 2472.89 928.806 2476.2 926.02C2479.5 923.234 2481.16 919.871 2481.16 915.939C2481.16 912.543 2479.97 909.806 2477.57 907.729C2475.18 905.66 2471.55 904.193 2466.65 903.344L2456.82 901.514C2453.92 901.036 2450.87 900.335 2447.68 899.404C2444.48 898.472 2441.5 897.161 2438.73 895.463C2435.96 893.765 2433.7 891.507 2431.96 888.688C2430.22 885.869 2429.34 882.316 2429.34 878.013C2429.34 872.326 2430.85 867.644 2433.85 863.951C2436.86 860.258 2440.91 857.472 2445.99 855.584C2451.06 853.697 2456.64 852.757 2462.71 852.757C2468.78 852.757 2474.56 853.713 2479.39 855.625C2484.23 857.538 2488.19 860.283 2491.28 863.868C2494.37 867.454 2496.4 871.823 2497.37 876.975L2480.6 880.321C2480.23 877.345 2479.39 874.732 2478.1 872.474C2476.81 870.215 2474.93 868.451 2472.46 867.174C2469.99 865.896 2466.74 865.261 2462.7 865.261C2457.97 865.261 2453.96 866.234 2450.65 868.171C2447.35 870.108 2445.7 872.993 2445.7 876.818C2445.7 879.052 2446.34 880.948 2447.59 882.514C2448.85 884.08 2450.7 885.358 2453.11 886.338C2455.53 887.319 2458.52 888.185 2462.06 888.927L2472.3 890.996C2476.87 891.845 2481.09 893.164 2484.99 894.936C2488.88 896.716 2492.02 899.214 2494.42 902.429C2496.81 905.643 2498 909.88 2498 915.139C2498 920.926 2496.49 925.896 2493.49 930.042C2490.48 934.189 2486.34 937.346 2481.08 939.522C2475.81 941.698 2469.74 942.786 2462.86 942.786L2462.85 942.778Z" fill="black"/>
<path d="M1232.05 948.999V860.499H1241.61V870.723H1242.78C1243.5 869.606 1244.51 868.181 1245.8 866.449C1247.11 864.689 1248.98 863.125 1251.41 861.756C1253.87 860.359 1257.19 859.661 1261.38 859.661C1266.8 859.661 1271.58 861.015 1275.71 863.725C1279.85 866.435 1283.08 870.276 1285.39 875.249C1287.71 880.221 1288.87 886.088 1288.87 892.848C1288.87 899.664 1287.71 905.573 1285.39 910.573C1283.08 915.546 1279.86 919.401 1275.76 922.139C1271.65 924.848 1266.91 926.203 1261.55 926.203C1257.42 926.203 1254.11 925.519 1251.62 924.15C1249.13 922.753 1247.22 921.175 1245.88 919.415C1244.54 917.627 1243.5 916.146 1242.78 914.973H1241.94V948.999H1232.05ZM1241.77 892.68C1241.77 897.541 1242.49 901.829 1243.91 905.545C1245.33 909.232 1247.42 912.124 1250.15 914.219C1252.89 916.286 1256.24 917.32 1260.21 917.32C1264.34 917.32 1267.79 916.23 1270.56 914.051C1273.35 911.844 1275.45 908.883 1276.85 905.168C1278.27 901.424 1278.98 897.262 1278.98 892.68C1278.98 888.155 1278.28 884.076 1276.89 880.445C1275.52 876.785 1273.44 873.894 1270.64 871.771C1267.88 869.62 1264.4 868.544 1260.21 868.544C1256.19 868.544 1252.81 869.564 1250.07 871.603C1247.33 873.614 1245.26 876.436 1243.87 880.068C1242.47 883.671 1241.77 887.876 1241.77 892.68ZM1327.75 926.203C1321.93 926.203 1316.84 924.82 1312.45 922.055C1308.09 919.289 1304.68 915.42 1302.23 910.448C1299.8 905.475 1298.58 899.664 1298.58 893.016C1298.58 886.311 1299.8 880.459 1302.23 875.458C1304.68 870.458 1308.09 866.575 1312.45 863.809C1316.84 861.043 1321.93 859.661 1327.75 859.661C1333.56 859.661 1338.64 861.043 1343 863.809C1347.38 866.575 1350.79 870.458 1353.22 875.458C1355.68 880.459 1356.91 886.311 1356.91 893.016C1356.91 899.664 1355.68 905.475 1353.22 910.448C1350.79 915.42 1347.38 919.289 1343 922.055C1338.64 924.82 1333.56 926.203 1327.75 926.203ZM1327.75 917.32C1332.16 917.32 1335.79 916.188 1338.64 913.926C1341.49 911.663 1343.6 908.688 1344.97 905C1346.34 901.313 1347.02 897.318 1347.02 893.016C1347.02 888.714 1346.34 884.705 1344.97 880.989C1343.6 877.274 1341.49 874.271 1338.64 871.98C1335.79 869.689 1332.16 868.544 1327.75 868.544C1323.33 868.544 1319.7 869.689 1316.85 871.98C1314 874.271 1311.89 877.274 1310.52 880.989C1309.15 884.705 1308.47 888.714 1308.47 893.016C1308.47 897.318 1309.15 901.313 1310.52 905C1311.89 908.688 1314 911.663 1316.85 913.926C1319.7 916.188 1323.33 917.32 1327.75 917.32ZM1382.04 924.862L1362.43 860.499H1372.82L1386.73 909.777H1387.4L1401.15 860.499H1411.71L1425.28 909.609H1425.95L1439.87 860.499H1450.26L1430.65 924.862H1420.92L1406.85 875.416H1405.84L1391.76 924.862H1382.04ZM1485.77 926.203C1479.57 926.203 1474.22 924.834 1469.72 922.097C1465.25 919.331 1461.8 915.476 1459.37 910.531C1456.97 905.559 1455.76 899.776 1455.76 893.183C1455.76 886.591 1456.97 880.78 1459.37 875.752C1461.8 870.695 1465.18 866.756 1469.51 863.935C1473.87 861.085 1478.95 859.661 1484.76 859.661C1488.11 859.661 1491.42 860.219 1494.69 861.337C1497.96 862.454 1500.94 864.27 1503.62 866.784C1506.3 869.27 1508.44 872.567 1510.03 876.673C1511.62 880.78 1512.42 885.836 1512.42 891.842V896.033H1462.8V887.484H1502.36C1502.36 883.853 1501.63 880.612 1500.18 877.763C1498.76 874.913 1496.72 872.665 1494.06 871.016C1491.44 869.368 1488.34 868.544 1484.76 868.544C1480.82 868.544 1477.41 869.522 1474.54 871.477C1471.69 873.405 1469.49 875.919 1467.96 879.02C1466.42 882.121 1465.65 885.445 1465.65 888.993V894.692C1465.65 899.553 1466.49 903.673 1468.17 907.053C1469.87 910.406 1472.23 912.962 1475.25 914.722C1478.27 916.454 1481.77 917.32 1485.77 917.32C1488.37 917.32 1490.71 916.957 1492.81 916.23C1494.93 915.476 1496.76 914.359 1498.3 912.878C1499.83 911.369 1501.02 909.498 1501.86 907.263L1511.41 909.945C1510.41 913.185 1508.72 916.035 1506.34 918.493C1503.97 920.923 1501.03 922.823 1497.54 924.192C1494.05 925.533 1490.13 926.203 1485.77 926.203ZM1525.1 924.862V860.499H1534.66V870.22H1535.33C1536.5 867.036 1538.62 864.452 1541.7 862.468C1544.77 860.485 1548.23 859.493 1552.09 859.493C1552.81 859.493 1553.72 859.507 1554.81 859.535C1555.9 859.563 1556.72 859.605 1557.28 859.661V869.717C1556.95 869.634 1556.18 869.508 1554.98 869.34C1553.81 869.145 1552.56 869.047 1551.25 869.047C1548.12 869.047 1545.33 869.703 1542.87 871.016C1540.44 872.301 1538.51 874.089 1537.09 876.38C1535.69 878.643 1534.99 881.227 1534.99 884.132V924.862H1525.1ZM1591.67 926.203C1585.47 926.203 1580.12 924.834 1575.62 922.097C1571.15 919.331 1567.7 915.476 1565.27 910.531C1562.87 905.559 1561.67 899.776 1561.67 893.183C1561.67 886.591 1562.87 880.78 1565.27 875.752C1567.7 870.695 1571.08 866.756 1575.41 863.935C1579.77 861.085 1584.86 859.661 1590.67 859.661C1594.02 859.661 1597.33 860.219 1600.6 861.337C1603.87 862.454 1606.84 864.27 1609.52 866.784C1612.21 869.27 1614.34 872.567 1615.93 876.673C1617.53 880.78 1618.32 885.836 1618.32 891.842V896.033H1568.71V887.484H1608.27C1608.27 883.853 1607.54 880.612 1606.09 877.763C1604.66 874.913 1602.62 872.665 1599.97 871.016C1597.34 869.368 1594.24 868.544 1590.67 868.544C1586.73 868.544 1583.32 869.522 1580.44 871.477C1577.59 873.405 1575.4 875.919 1573.86 879.02C1572.33 882.121 1571.56 885.445 1571.56 888.993V894.692C1571.56 899.553 1572.4 903.673 1574.07 907.053C1575.78 910.406 1578.14 912.962 1581.15 914.722C1584.17 916.454 1587.68 917.32 1591.67 917.32C1594.27 917.32 1596.62 916.957 1598.71 916.23C1600.84 915.476 1602.67 914.359 1604.2 912.878C1605.74 911.369 1606.93 909.498 1607.76 907.263L1617.32 909.945C1616.31 913.185 1614.62 916.035 1612.25 918.493C1609.87 920.923 1606.94 922.823 1603.45 924.192C1599.96 925.533 1596.03 926.203 1591.67 926.203ZM1655.31 926.203C1649.95 926.203 1645.21 924.848 1641.11 922.139C1637 919.401 1633.79 915.546 1631.47 910.573C1629.15 905.573 1627.99 899.664 1627.99 892.848C1627.99 886.088 1629.15 880.221 1631.47 875.249C1633.79 870.276 1637.01 866.435 1641.15 863.725C1645.28 861.015 1650.06 859.661 1655.48 859.661C1659.67 859.661 1662.98 860.359 1665.41 861.756C1667.87 863.125 1669.74 864.689 1671.02 866.449C1672.34 868.181 1673.36 869.606 1674.08 870.723H1674.92V839.044H1684.81V924.862H1675.26V914.973H1674.08C1673.36 916.146 1672.32 917.627 1670.98 919.415C1669.64 921.175 1667.73 922.753 1665.24 924.15C1662.76 925.519 1659.44 926.203 1655.31 926.203ZM1656.65 917.32C1660.62 917.32 1663.97 916.286 1666.71 914.219C1669.45 912.124 1671.53 909.232 1672.95 905.545C1674.38 901.829 1675.09 897.541 1675.09 892.68C1675.09 887.876 1674.39 883.671 1672.99 880.068C1671.6 876.436 1669.53 873.614 1666.79 871.603C1664.05 869.564 1660.67 868.544 1656.65 868.544C1652.46 868.544 1648.97 869.62 1646.18 871.771C1643.41 873.894 1641.33 876.785 1639.93 880.445C1638.56 884.076 1637.88 888.155 1637.88 892.68C1637.88 897.262 1638.58 901.424 1639.97 905.168C1641.4 908.883 1643.49 911.844 1646.26 914.051C1649.05 916.23 1652.52 917.32 1656.65 917.32ZM1734.1 924.862V839.044H1743.99V870.723H1744.83C1745.56 869.606 1746.56 868.181 1747.85 866.449C1749.16 864.689 1751.03 863.125 1753.46 861.756C1755.92 860.359 1759.25 859.661 1763.44 859.661C1768.86 859.661 1773.63 861.015 1777.77 863.725C1781.9 866.435 1785.13 870.276 1787.45 875.249C1789.77 880.221 1790.92 886.088 1790.92 892.848C1790.92 899.664 1789.77 905.573 1787.45 910.573C1785.13 915.546 1781.92 919.401 1777.81 922.139C1773.7 924.848 1768.97 926.203 1763.6 926.203C1759.47 926.203 1756.16 925.519 1753.67 924.15C1751.19 922.753 1749.27 921.175 1747.93 919.415C1746.59 917.627 1745.56 916.146 1744.83 914.973H1743.66V924.862H1734.1ZM1743.83 892.68C1743.83 897.541 1744.54 901.829 1745.96 905.545C1747.39 909.232 1749.47 912.124 1752.21 914.219C1754.94 916.286 1758.3 917.32 1762.26 917.32C1766.4 917.32 1769.85 916.23 1772.61 914.051C1775.41 911.844 1777.5 908.883 1778.9 905.168C1780.32 901.424 1781.04 897.262 1781.04 892.68C1781.04 888.155 1780.34 884.076 1778.94 880.445C1777.57 876.785 1775.49 873.894 1772.7 871.771C1769.93 869.62 1766.45 868.544 1762.26 868.544C1758.24 868.544 1754.86 869.564 1752.12 871.603C1749.38 873.614 1747.32 876.436 1745.92 880.068C1744.52 883.671 1743.83 887.876 1743.83 892.68ZM1807.76 948.999C1806.08 948.999 1804.59 948.859 1803.27 948.58C1801.96 948.328 1801.05 948.077 1800.55 947.825L1803.06 939.109C1805.47 939.724 1807.59 939.948 1809.43 939.78C1811.28 939.612 1812.91 938.788 1814.34 937.308C1815.79 935.855 1817.12 933.494 1818.32 930.226L1820.16 925.198L1796.36 860.499H1807.09L1824.85 911.788H1825.52L1843.29 860.499H1854.02L1826.7 934.249C1825.47 937.573 1823.95 940.325 1822.13 942.504C1820.31 944.711 1818.2 946.345 1815.8 947.406C1813.43 948.468 1810.75 948.999 1807.76 948.999ZM1871.92 925.533C1869.85 925.533 1868.08 924.792 1866.6 923.312C1865.12 921.831 1864.38 920.057 1864.38 917.99C1864.38 915.923 1865.12 914.149 1866.6 912.668C1868.08 911.188 1869.85 910.448 1871.92 910.448C1873.99 910.448 1875.76 911.188 1877.24 912.668C1878.72 914.149 1879.46 915.923 1879.46 917.99C1879.46 919.359 1879.11 920.616 1878.41 921.761C1877.74 922.907 1876.83 923.829 1875.69 924.527C1874.57 925.198 1873.32 925.533 1871.92 925.533ZM1871.92 877.763C1869.85 877.763 1868.08 877.023 1866.6 875.542C1865.12 874.061 1864.38 872.287 1864.38 870.22C1864.38 868.153 1865.12 866.379 1866.6 864.899C1868.08 863.418 1869.85 862.678 1871.92 862.678C1873.99 862.678 1875.76 863.418 1877.24 864.899C1878.72 866.379 1879.46 868.153 1879.46 870.22C1879.46 871.589 1879.11 872.846 1878.41 873.992C1877.74 875.137 1876.83 876.059 1875.69 876.757C1874.57 877.428 1873.32 877.763 1871.92 877.763Z" fill="#595959"/>
</svg>
